<svg xmlns="http://www.w3.org/2000/svg" xmlns:xlink="http://www.w3.org/1999/xlink" width="900" zoomAndPan="magnify" viewBox="0 0 675 540.000001" height="720" preserveAspectRatio="xMidYMid meet" version="1.0"><path fill="#030352" d="M 303.261719 172.492188 C 303.261719 172.492188 272.21875 97.882812 218.304688 90.800781 C 218.304688 90.800781 226.378906 99.652344 239.007812 115.792969 C 276.378906 163.554688 353.730469 275.351562 380.59375 412.117188 C 380.59375 412.117188 419.808594 87.539062 596.257812 6.9375 C 596.257812 6.9375 440.5 179.035156 405.648438 536.289062 L 355.546875 536.289062 C 355.546875 536.289062 344.65625 324.980469 248.800781 202.988281 C 248.800781 202.988281 174.734375 209.523438 148.59375 159.421875 C 122.453125 109.320312 128.992188 57.042969 96.308594 6.9375 C 338.847656 -13.40625 303.261719 172.492188 303.261719 172.492188 Z M 303.261719 172.492188 " fill-opacity="1" fill-rule="nonzero"/></svg>