<svg xmlns="http://www.w3.org/2000/svg" xmlns:xlink="http://www.w3.org/1999/xlink" version="1.1" x="0px" y="0px" viewBox="0 0 95 118.75" enable-background="new 0 0 95 95" xml:space="preserve"><path d="M40.496,31.49c0,0-5.054-12.147-13.832-13.3c0,0,1.315,1.441,3.371,4.069c6.084,7.776,18.677,25.977,23.051,48.243  c0,0,6.384-52.843,35.111-65.965c0,0-25.358,28.018-31.032,86.181h-8.157c0,0-1.773-34.402-17.379-54.263  c0,0-12.058,1.064-16.314-7.093c-4.256-8.157-3.191-16.668-8.512-24.825C46.289,1.225,40.496,31.49,40.496,31.49z"/><text x="0" y="110" fill="#000000" font-size="5px" font-weight="bold" font-family="'Helvetica Neue', Helvetica, Arial-Unicode, Arial, Sans-serif"></text><text x="0" y="115" fill="#000000" font-size="5px" font-weight="bold" font-family="'Helvetica Neue', Helvetica, Arial-Unicode, Arial, Sans-serif"></text></svg>